M48
; DRILL file {KiCad (5.1.12)-1} date 04/29/22 07:44:39
; FORMAT={-:-/ absolute / metric / decimal}
; #@! TF.CreationDate,2022-04-29T07:44:39-07:00
; #@! TF.GenerationSoftware,Kicad,Pcbnew,(5.1.12)-1
; #@! TF.FileFunction,Plated,1,2,PTH
FMAT,2
METRIC
T1C0.400
T2C0.750
T3C0.762
T4C0.800
T5C0.890
T6C1.000
T7C1.100
T8C2.010
%
G90
G05
T1
X-35.424Y-201.967
X-20.261Y-165.7
T2
X-35.375Y-219.635
X-34.105Y-219.635
X-32.835Y-219.635
T3
X-2.489Y-191.567
X-2.489Y-194.107
X-2.489Y-196.647
X-2.489Y-199.187
X-2.489Y-201.727
X-2.489Y-204.267
X-2.489Y-206.807
X-2.489Y-209.347
X-2.489Y-211.887
X-2.489Y-214.427
X-2.489Y-216.967
X-2.489Y-219.507
X-2.489Y-222.047
X-2.489Y-224.587
X-2.489Y-227.127
X25.451Y-191.567
X25.451Y-194.107
X25.451Y-196.647
X25.451Y-199.187
X25.451Y-201.727
X25.451Y-204.267
X25.451Y-206.807
X25.451Y-209.347
X25.451Y-211.887
X25.451Y-214.427
X25.451Y-216.967
X25.451Y-219.507
X25.451Y-222.047
X25.451Y-224.587
X25.451Y-227.127
T4
X-41.875Y-219.655
X-41.525Y-225.045
X-41.445Y-193.875
X-41.445Y-198.625
X-41.445Y-203.375
X-39.375Y-219.655
X-39.025Y-225.045
X-35.875Y-225.045
X-33.375Y-225.045
X-30.4Y-217.6
X-30.4Y-220.14
X-30.4Y-222.68
X-30.4Y-225.22
X-28.745Y-193.875
X-28.745Y-198.625
X-28.745Y-203.375
X-26.075Y-203.115
X-22.78Y-217.6
X-22.78Y-220.14
X-22.78Y-222.68
X-22.78Y-225.22
X-14.64Y-210.81
X-14.64Y-223.51
X-13.375Y-203.115
X-9.6Y-193.6
X-7.1Y-193.6
T5
X0.66Y-153.6
X3.2Y-153.6
T6
X-24.0Y-152.66
X-24.0Y-155.2
X-21.46Y-152.66
X-21.46Y-155.2
X-19.53Y-212.01
X-19.53Y-214.55
X-19.53Y-217.09
X-19.53Y-219.63
X-19.53Y-222.17
X-19.53Y-224.71
X-18.92Y-152.66
X-18.92Y-155.2
X-16.38Y-152.66
X-16.38Y-155.2
X-14.75Y-227.59
X-12.21Y-227.59
X-9.67Y-227.59
X-9.11Y-204.73
X-9.11Y-207.27
X-7.13Y-227.59
X-6.57Y-204.73
X-6.57Y-207.27
T7
X-6.64Y-215.51
X-6.64Y-218.05
X-6.64Y-220.59
T8
X-1.88Y-148.52
X8.28Y-148.52
T6
X-23.85Y-160.3G85X-25.35Y-160.3
G05
X-23.85Y-169.3G85X-25.35Y-169.3
G05
X-23.6Y-164.15G85X-23.6Y-165.45
G05
X-17.6Y-163.8G85X-17.6Y-165.8
G05
X-1.6Y-165.8G85X-1.6Y-163.8
G05
X4.4Y-165.45G85X4.4Y-164.15
G05
X4.65Y-160.3G85X6.15Y-160.3
G05
X4.65Y-169.3G85X6.15Y-169.3
G05
T0
M30
