%TF.GenerationSoftware,KiCad,Pcbnew,(5.1.12)-1*%
%TF.CreationDate,2022-04-29T07:44:41-07:00*%
%TF.ProjectId,Conductivity_Sensor_V1,436f6e64-7563-4746-9976-6974795f5365,rev?*%
%TF.SameCoordinates,Original*%
%TF.FileFunction,Legend,Bot*%
%TF.FilePolarity,Positive*%
%FSLAX46Y46*%
G04 Gerber Fmt 4.6, Leading zero omitted, Abs format (unit mm)*
G04 Created by KiCad (PCBNEW (5.1.12)-1) date 2022-04-29 07:44:41*
%MOMM*%
%LPD*%
G01*
G04 APERTURE LIST*
%ADD10C,0.120000*%
%ADD11C,0.150000*%
G04 APERTURE END LIST*
D10*
%TO.C,J10*%
X-18200000Y-210680000D02*
X-19530000Y-210680000D01*
X-18200000Y-212010000D02*
X-18200000Y-210680000D01*
X-18200000Y-213280000D02*
X-20860000Y-213280000D01*
X-20860000Y-213280000D02*
X-20860000Y-226040000D01*
X-18200000Y-213280000D02*
X-18200000Y-226040000D01*
X-18200000Y-226040000D02*
X-20860000Y-226040000D01*
D11*
X-18720476Y-209132380D02*
X-18720476Y-209846666D01*
X-18672857Y-209989523D01*
X-18577619Y-210084761D01*
X-18434761Y-210132380D01*
X-18339523Y-210132380D01*
X-19720476Y-210132380D02*
X-19149047Y-210132380D01*
X-19434761Y-210132380D02*
X-19434761Y-209132380D01*
X-19339523Y-209275238D01*
X-19244285Y-209370476D01*
X-19149047Y-209418095D01*
X-20339523Y-209132380D02*
X-20434761Y-209132380D01*
X-20530000Y-209180000D01*
X-20577619Y-209227619D01*
X-20625238Y-209322857D01*
X-20672857Y-209513333D01*
X-20672857Y-209751428D01*
X-20625238Y-209941904D01*
X-20577619Y-210037142D01*
X-20530000Y-210084761D01*
X-20434761Y-210132380D01*
X-20339523Y-210132380D01*
X-20244285Y-210084761D01*
X-20196666Y-210037142D01*
X-20149047Y-209941904D01*
X-20101428Y-209751428D01*
X-20101428Y-209513333D01*
X-20149047Y-209322857D01*
X-20196666Y-209227619D01*
X-20244285Y-209180000D01*
X-20339523Y-209132380D01*
%TD*%
M02*
