%TF.GenerationSoftware,KiCad,Pcbnew,(5.1.12)-1*%
%TF.CreationDate,2022-04-29T07:41:31-07:00*%
%TF.ProjectId,LED_BOARD_V1,4c45445f-424f-4415-9244-5f56312e6b69,rev?*%
%TF.SameCoordinates,Original*%
%TF.FileFunction,Legend,Top*%
%TF.FilePolarity,Positive*%
%FSLAX46Y46*%
G04 Gerber Fmt 4.6, Leading zero omitted, Abs format (unit mm)*
G04 Created by KiCad (PCBNEW (5.1.12)-1) date 2022-04-29 07:41:31*
%MOMM*%
%LPD*%
G01*
G04 APERTURE LIST*
%ADD10C,0.120000*%
%ADD11C,0.150000*%
G04 APERTURE END LIST*
D10*
%TO.C,R6*%
X160740000Y-95390000D02*
X160740000Y-96080000D01*
X160740000Y-106010000D02*
X160740000Y-105320000D01*
X159020000Y-96080000D02*
X159020000Y-105320000D01*
X162460000Y-96080000D02*
X159020000Y-96080000D01*
X162460000Y-105320000D02*
X162460000Y-96080000D01*
X159020000Y-105320000D02*
X162460000Y-105320000D01*
%TO.C,R5*%
X149410000Y-95060000D02*
X149410000Y-95750000D01*
X149410000Y-105680000D02*
X149410000Y-104990000D01*
X147690000Y-95750000D02*
X147690000Y-104990000D01*
X151130000Y-95750000D02*
X147690000Y-95750000D01*
X151130000Y-104990000D02*
X151130000Y-95750000D01*
X147690000Y-104990000D02*
X151130000Y-104990000D01*
%TO.C,R4*%
X160740000Y-79390000D02*
X160740000Y-80080000D01*
X160740000Y-90010000D02*
X160740000Y-89320000D01*
X159020000Y-80080000D02*
X159020000Y-89320000D01*
X162460000Y-80080000D02*
X159020000Y-80080000D01*
X162460000Y-89320000D02*
X162460000Y-80080000D01*
X159020000Y-89320000D02*
X162460000Y-89320000D01*
%TO.C,R3*%
X149540000Y-110320000D02*
X149540000Y-111010000D01*
X149540000Y-120940000D02*
X149540000Y-120250000D01*
X147820000Y-111010000D02*
X147820000Y-120250000D01*
X151260000Y-111010000D02*
X147820000Y-111010000D01*
X151260000Y-120250000D02*
X151260000Y-111010000D01*
X147820000Y-120250000D02*
X151260000Y-120250000D01*
%TO.C,R2*%
X160740000Y-63390000D02*
X160740000Y-64080000D01*
X160740000Y-74010000D02*
X160740000Y-73320000D01*
X159020000Y-64080000D02*
X159020000Y-73320000D01*
X162460000Y-64080000D02*
X159020000Y-64080000D01*
X162460000Y-73320000D02*
X162460000Y-64080000D01*
X159020000Y-73320000D02*
X162460000Y-73320000D01*
%TO.C,R1*%
X160740000Y-111390000D02*
X160740000Y-112080000D01*
X160740000Y-122010000D02*
X160740000Y-121320000D01*
X159020000Y-112080000D02*
X159020000Y-121320000D01*
X162460000Y-112080000D02*
X159020000Y-112080000D01*
X162460000Y-121320000D02*
X162460000Y-112080000D01*
X159020000Y-121320000D02*
X162460000Y-121320000D01*
%TO.C,J1*%
X208850000Y-88500000D02*
X209850000Y-88000000D01*
X208850000Y-87500000D02*
X208850000Y-88500000D01*
X209850000Y-88000000D02*
X208850000Y-87500000D01*
X215470000Y-100830000D02*
X215470000Y-82790000D01*
X224590000Y-100830000D02*
X215470000Y-100830000D01*
X224590000Y-82790000D02*
X224590000Y-100830000D01*
X215470000Y-82790000D02*
X224590000Y-82790000D01*
X215470000Y-93860000D02*
X224590000Y-93860000D01*
X215470000Y-89760000D02*
X224590000Y-89760000D01*
%TO.C,R6*%
D11*
X158472380Y-100866666D02*
X157996190Y-101200000D01*
X158472380Y-101438095D02*
X157472380Y-101438095D01*
X157472380Y-101057142D01*
X157520000Y-100961904D01*
X157567619Y-100914285D01*
X157662857Y-100866666D01*
X157805714Y-100866666D01*
X157900952Y-100914285D01*
X157948571Y-100961904D01*
X157996190Y-101057142D01*
X157996190Y-101438095D01*
X157472380Y-100009523D02*
X157472380Y-100200000D01*
X157520000Y-100295238D01*
X157567619Y-100342857D01*
X157710476Y-100438095D01*
X157900952Y-100485714D01*
X158281904Y-100485714D01*
X158377142Y-100438095D01*
X158424761Y-100390476D01*
X158472380Y-100295238D01*
X158472380Y-100104761D01*
X158424761Y-100009523D01*
X158377142Y-99961904D01*
X158281904Y-99914285D01*
X158043809Y-99914285D01*
X157948571Y-99961904D01*
X157900952Y-100009523D01*
X157853333Y-100104761D01*
X157853333Y-100295238D01*
X157900952Y-100390476D01*
X157948571Y-100438095D01*
X158043809Y-100485714D01*
%TO.C,R5*%
X147142380Y-100536666D02*
X146666190Y-100870000D01*
X147142380Y-101108095D02*
X146142380Y-101108095D01*
X146142380Y-100727142D01*
X146190000Y-100631904D01*
X146237619Y-100584285D01*
X146332857Y-100536666D01*
X146475714Y-100536666D01*
X146570952Y-100584285D01*
X146618571Y-100631904D01*
X146666190Y-100727142D01*
X146666190Y-101108095D01*
X146142380Y-99631904D02*
X146142380Y-100108095D01*
X146618571Y-100155714D01*
X146570952Y-100108095D01*
X146523333Y-100012857D01*
X146523333Y-99774761D01*
X146570952Y-99679523D01*
X146618571Y-99631904D01*
X146713809Y-99584285D01*
X146951904Y-99584285D01*
X147047142Y-99631904D01*
X147094761Y-99679523D01*
X147142380Y-99774761D01*
X147142380Y-100012857D01*
X147094761Y-100108095D01*
X147047142Y-100155714D01*
%TO.C,R4*%
X158472380Y-84866666D02*
X157996190Y-85200000D01*
X158472380Y-85438095D02*
X157472380Y-85438095D01*
X157472380Y-85057142D01*
X157520000Y-84961904D01*
X157567619Y-84914285D01*
X157662857Y-84866666D01*
X157805714Y-84866666D01*
X157900952Y-84914285D01*
X157948571Y-84961904D01*
X157996190Y-85057142D01*
X157996190Y-85438095D01*
X157805714Y-84009523D02*
X158472380Y-84009523D01*
X157424761Y-84247619D02*
X158139047Y-84485714D01*
X158139047Y-83866666D01*
%TO.C,R3*%
X147272380Y-115796666D02*
X146796190Y-116130000D01*
X147272380Y-116368095D02*
X146272380Y-116368095D01*
X146272380Y-115987142D01*
X146320000Y-115891904D01*
X146367619Y-115844285D01*
X146462857Y-115796666D01*
X146605714Y-115796666D01*
X146700952Y-115844285D01*
X146748571Y-115891904D01*
X146796190Y-115987142D01*
X146796190Y-116368095D01*
X146272380Y-115463333D02*
X146272380Y-114844285D01*
X146653333Y-115177619D01*
X146653333Y-115034761D01*
X146700952Y-114939523D01*
X146748571Y-114891904D01*
X146843809Y-114844285D01*
X147081904Y-114844285D01*
X147177142Y-114891904D01*
X147224761Y-114939523D01*
X147272380Y-115034761D01*
X147272380Y-115320476D01*
X147224761Y-115415714D01*
X147177142Y-115463333D01*
%TO.C,R2*%
X158472380Y-68866666D02*
X157996190Y-69200000D01*
X158472380Y-69438095D02*
X157472380Y-69438095D01*
X157472380Y-69057142D01*
X157520000Y-68961904D01*
X157567619Y-68914285D01*
X157662857Y-68866666D01*
X157805714Y-68866666D01*
X157900952Y-68914285D01*
X157948571Y-68961904D01*
X157996190Y-69057142D01*
X157996190Y-69438095D01*
X157567619Y-68485714D02*
X157520000Y-68438095D01*
X157472380Y-68342857D01*
X157472380Y-68104761D01*
X157520000Y-68009523D01*
X157567619Y-67961904D01*
X157662857Y-67914285D01*
X157758095Y-67914285D01*
X157900952Y-67961904D01*
X158472380Y-68533333D01*
X158472380Y-67914285D01*
%TO.C,R1*%
X158472380Y-116866666D02*
X157996190Y-117200000D01*
X158472380Y-117438095D02*
X157472380Y-117438095D01*
X157472380Y-117057142D01*
X157520000Y-116961904D01*
X157567619Y-116914285D01*
X157662857Y-116866666D01*
X157805714Y-116866666D01*
X157900952Y-116914285D01*
X157948571Y-116961904D01*
X157996190Y-117057142D01*
X157996190Y-117438095D01*
X158472380Y-115914285D02*
X158472380Y-116485714D01*
X158472380Y-116200000D02*
X157472380Y-116200000D01*
X157615238Y-116295238D01*
X157710476Y-116390476D01*
X157758095Y-116485714D01*
%TO.C,J1*%
X217081666Y-81352380D02*
X217081666Y-82066666D01*
X217034047Y-82209523D01*
X216938809Y-82304761D01*
X216795952Y-82352380D01*
X216700714Y-82352380D01*
X218081666Y-82352380D02*
X217510238Y-82352380D01*
X217795952Y-82352380D02*
X217795952Y-81352380D01*
X217700714Y-81495238D01*
X217605476Y-81590476D01*
X217510238Y-81638095D01*
%TD*%
M02*
