%TF.GenerationSoftware,KiCad,Pcbnew,(5.1.12)-1*%
%TF.CreationDate,2022-04-29T07:41:31-07:00*%
%TF.ProjectId,LED_BOARD_V1,4c45445f-424f-4415-9244-5f56312e6b69,rev?*%
%TF.SameCoordinates,Original*%
%TF.FileFunction,Copper,L2,Bot*%
%TF.FilePolarity,Positive*%
%FSLAX46Y46*%
G04 Gerber Fmt 4.6, Leading zero omitted, Abs format (unit mm)*
G04 Created by KiCad (PCBNEW (5.1.12)-1) date 2022-04-29 07:41:31*
%MOMM*%
%LPD*%
G01*
G04 APERTURE LIST*
%TA.AperFunction,ComponentPad*%
%ADD10O,1.600000X1.600000*%
%TD*%
%TA.AperFunction,ComponentPad*%
%ADD11C,1.600000*%
%TD*%
%TA.AperFunction,ComponentPad*%
%ADD12C,1.700000*%
%TD*%
%TA.AperFunction,ComponentPad*%
%ADD13C,1.800000*%
%TD*%
%TA.AperFunction,ComponentPad*%
%ADD14R,1.800000X1.800000*%
%TD*%
%TA.AperFunction,ViaPad*%
%ADD15C,0.800000*%
%TD*%
%TA.AperFunction,Conductor*%
%ADD16C,0.250000*%
%TD*%
G04 APERTURE END LIST*
D10*
%TO.P,R6,2*%
%TO.N,GND*%
X160740000Y-94350000D03*
D11*
%TO.P,R6,1*%
%TO.N,Net-(D6-Pad1)*%
X160740000Y-107050000D03*
%TD*%
D10*
%TO.P,R5,2*%
%TO.N,GND*%
X149410000Y-94020000D03*
D11*
%TO.P,R5,1*%
%TO.N,Net-(D5-Pad1)*%
X149410000Y-106720000D03*
%TD*%
D10*
%TO.P,R4,2*%
%TO.N,GND*%
X160740000Y-78350000D03*
D11*
%TO.P,R4,1*%
%TO.N,Net-(D4-Pad1)*%
X160740000Y-91050000D03*
%TD*%
D10*
%TO.P,R3,2*%
%TO.N,GND*%
X149540000Y-109280000D03*
D11*
%TO.P,R3,1*%
%TO.N,Net-(D3-Pad1)*%
X149540000Y-121980000D03*
%TD*%
D10*
%TO.P,R2,2*%
%TO.N,GND*%
X160740000Y-62350000D03*
D11*
%TO.P,R2,1*%
%TO.N,Net-(D2-Pad1)*%
X160740000Y-75050000D03*
%TD*%
D10*
%TO.P,R1,2*%
%TO.N,GND*%
X160740000Y-110350000D03*
D11*
%TO.P,R1,1*%
%TO.N,Net-(D1-Pad1)*%
X160740000Y-123050000D03*
%TD*%
D12*
%TO.P,J1,8*%
%TO.N,N/C*%
X213740000Y-95620000D03*
%TO.P,J1,6*%
%TO.N,LED6*%
X213740000Y-93080000D03*
%TO.P,J1,4*%
%TO.N,LED4*%
X213740000Y-90540000D03*
%TO.P,J1,2*%
%TO.N,LED2*%
X213740000Y-88000000D03*
%TO.P,J1,7*%
%TO.N,GND*%
X211200000Y-95620000D03*
%TO.P,J1,5*%
%TO.N,LED5*%
X211200000Y-93080000D03*
%TO.P,J1,3*%
%TO.N,LED3*%
X211200000Y-90540000D03*
%TO.P,J1,1*%
%TO.N,LED1*%
%TA.AperFunction,ComponentPad*%
G36*
G01*
X210350000Y-88600000D02*
X210350000Y-87400000D01*
G75*
G02*
X210600000Y-87150000I250000J0D01*
G01*
X211800000Y-87150000D01*
G75*
G02*
X212050000Y-87400000I0J-250000D01*
G01*
X212050000Y-88600000D01*
G75*
G02*
X211800000Y-88850000I-250000J0D01*
G01*
X210600000Y-88850000D01*
G75*
G02*
X210350000Y-88600000I0J250000D01*
G01*
G37*
%TD.AperFunction*%
%TD*%
D13*
%TO.P,D6,2*%
%TO.N,LED6*%
X156580000Y-80015000D03*
D14*
%TO.P,D6,1*%
%TO.N,Net-(D6-Pad1)*%
X154040000Y-80015000D03*
%TD*%
D13*
%TO.P,D5,2*%
%TO.N,LED5*%
X156580000Y-87920000D03*
D14*
%TO.P,D5,1*%
%TO.N,Net-(D5-Pad1)*%
X154040000Y-87920000D03*
%TD*%
D13*
%TO.P,D4,2*%
%TO.N,LED4*%
X156580000Y-103730000D03*
D14*
%TO.P,D4,1*%
%TO.N,Net-(D4-Pad1)*%
X154040000Y-103730000D03*
%TD*%
D13*
%TO.P,D3,2*%
%TO.N,LED3*%
X156580000Y-95825000D03*
D14*
%TO.P,D3,1*%
%TO.N,Net-(D3-Pad1)*%
X154040000Y-95825000D03*
%TD*%
D13*
%TO.P,D2,2*%
%TO.N,LED2*%
X156580000Y-72110000D03*
D14*
%TO.P,D2,1*%
%TO.N,Net-(D2-Pad1)*%
X154040000Y-72110000D03*
%TD*%
D13*
%TO.P,D1,2*%
%TO.N,LED1*%
X156480000Y-113080000D03*
D14*
%TO.P,D1,1*%
%TO.N,Net-(D1-Pad1)*%
X153940000Y-113080000D03*
%TD*%
D15*
%TO.N,LED5*%
X208564800Y-91549600D03*
%TD*%
D16*
%TO.N,LED1*%
X211200000Y-88000000D02*
X211088700Y-88000000D01*
X211088700Y-88000000D02*
X186008700Y-113080000D01*
X186008700Y-113080000D02*
X156480000Y-113080000D01*
%TO.N,Net-(D1-Pad1)*%
X153940000Y-113080000D02*
X153940000Y-116250000D01*
X153940000Y-116250000D02*
X160740000Y-123050000D01*
%TO.N,Net-(D2-Pad1)*%
X154040000Y-72110000D02*
X155265300Y-72110000D01*
X155265300Y-72110000D02*
X155265300Y-71650500D01*
X155265300Y-71650500D02*
X156039700Y-70876100D01*
X156039700Y-70876100D02*
X157107100Y-70876100D01*
X157107100Y-70876100D02*
X160740000Y-74509000D01*
X160740000Y-74509000D02*
X160740000Y-75050000D01*
%TO.N,Net-(D3-Pad1)*%
X149540000Y-121980000D02*
X151688300Y-119831700D01*
X151688300Y-119831700D02*
X151688300Y-99402000D01*
X151688300Y-99402000D02*
X154040000Y-97050300D01*
X154040000Y-95825000D02*
X154040000Y-97050300D01*
%TO.N,Net-(D4-Pad1)*%
X154040000Y-103730000D02*
X154040000Y-102504700D01*
X154040000Y-102504700D02*
X158898800Y-97645900D01*
X158898800Y-97645900D02*
X158898800Y-92891200D01*
X158898800Y-92891200D02*
X160740000Y-91050000D01*
%TO.N,LED5*%
X211200000Y-93080000D02*
X210095200Y-93080000D01*
X210095200Y-93080000D02*
X208564800Y-91549600D01*
%TO.N,Net-(D5-Pad1)*%
X154040000Y-87920000D02*
X154040000Y-89145300D01*
X154040000Y-89145300D02*
X150787600Y-92397700D01*
X150787600Y-92397700D02*
X150787600Y-105342400D01*
X150787600Y-105342400D02*
X149410000Y-106720000D01*
%TO.N,Net-(D6-Pad1)*%
X154040000Y-80015000D02*
X154040000Y-81240300D01*
X154040000Y-81240300D02*
X161929000Y-89129300D01*
X161929000Y-89129300D02*
X161929000Y-105861000D01*
X161929000Y-105861000D02*
X160740000Y-107050000D01*
%TO.N,GND*%
X149410000Y-94020000D02*
X149410000Y-82384200D01*
X149410000Y-82384200D02*
X154569500Y-77224700D01*
X154569500Y-77224700D02*
X160740000Y-77224700D01*
X160740000Y-94912600D02*
X160740000Y-94350000D01*
X160740000Y-94912600D02*
X160740000Y-95475300D01*
X160740000Y-77809700D02*
X160740000Y-78350000D01*
X160740000Y-77809700D02*
X160740000Y-77224700D01*
X160740000Y-110350000D02*
X160740000Y-109224700D01*
X160740000Y-109224700D02*
X159614700Y-108099400D01*
X159614700Y-108099400D02*
X159614700Y-96600600D01*
X159614700Y-96600600D02*
X160740000Y-95475300D01*
X160740000Y-62350000D02*
X160740000Y-63475300D01*
X160740000Y-63475300D02*
X161865300Y-64600600D01*
X161865300Y-64600600D02*
X161865300Y-76099400D01*
X161865300Y-76099400D02*
X160740000Y-77224700D01*
%TD*%
M02*
