M48
; DRILL file {KiCad (5.1.12)-1} date 04/29/22 07:41:28
; FORMAT={-:-/ absolute / metric / decimal}
; #@! TF.CreationDate,2022-04-29T07:41:28-07:00
; #@! TF.GenerationSoftware,Kicad,Pcbnew,(5.1.12)-1
; #@! TF.FileFunction,Plated,1,2,PTH
FMAT,2
METRIC
T1C0.400
T2C0.800
T3C0.900
T4C1.000
%
G90
G05
T1
X208.565Y-91.55
T2
X149.41Y-94.02
X149.41Y-106.72
X149.54Y-109.28
X149.54Y-121.98
X160.74Y-62.35
X160.74Y-75.05
X160.74Y-78.35
X160.74Y-91.05
X160.74Y-94.35
X160.74Y-107.05
X160.74Y-110.35
X160.74Y-123.05
T3
X153.94Y-113.08
X154.04Y-72.11
X154.04Y-80.015
X154.04Y-87.92
X154.04Y-95.825
X154.04Y-103.73
X156.48Y-113.08
X156.58Y-72.11
X156.58Y-80.015
X156.58Y-87.92
X156.58Y-95.825
X156.58Y-103.73
T4
X211.2Y-88.0
X211.2Y-90.54
X211.2Y-93.08
X211.2Y-95.62
X213.74Y-88.0
X213.74Y-90.54
X213.74Y-93.08
X213.74Y-95.62
T0
M30
