%TF.GenerationSoftware,KiCad,Pcbnew,(5.1.12)-1*%
%TF.CreationDate,2022-04-29T07:41:31-07:00*%
%TF.ProjectId,LED_BOARD_V1,4c45445f-424f-4415-9244-5f56312e6b69,rev?*%
%TF.SameCoordinates,Original*%
%TF.FileFunction,Copper,L1,Top*%
%TF.FilePolarity,Positive*%
%FSLAX46Y46*%
G04 Gerber Fmt 4.6, Leading zero omitted, Abs format (unit mm)*
G04 Created by KiCad (PCBNEW (5.1.12)-1) date 2022-04-29 07:41:31*
%MOMM*%
%LPD*%
G01*
G04 APERTURE LIST*
%TA.AperFunction,ComponentPad*%
%ADD10O,1.600000X1.600000*%
%TD*%
%TA.AperFunction,ComponentPad*%
%ADD11C,1.600000*%
%TD*%
%TA.AperFunction,ComponentPad*%
%ADD12C,1.700000*%
%TD*%
%TA.AperFunction,ComponentPad*%
%ADD13C,1.800000*%
%TD*%
%TA.AperFunction,ComponentPad*%
%ADD14R,1.800000X1.800000*%
%TD*%
%TA.AperFunction,ViaPad*%
%ADD15C,0.800000*%
%TD*%
%TA.AperFunction,Conductor*%
%ADD16C,0.250000*%
%TD*%
G04 APERTURE END LIST*
D10*
%TO.P,R6,2*%
%TO.N,GND*%
X160740000Y-94350000D03*
D11*
%TO.P,R6,1*%
%TO.N,Net-(D6-Pad1)*%
X160740000Y-107050000D03*
%TD*%
D10*
%TO.P,R5,2*%
%TO.N,GND*%
X149410000Y-94020000D03*
D11*
%TO.P,R5,1*%
%TO.N,Net-(D5-Pad1)*%
X149410000Y-106720000D03*
%TD*%
D10*
%TO.P,R4,2*%
%TO.N,GND*%
X160740000Y-78350000D03*
D11*
%TO.P,R4,1*%
%TO.N,Net-(D4-Pad1)*%
X160740000Y-91050000D03*
%TD*%
D10*
%TO.P,R3,2*%
%TO.N,GND*%
X149540000Y-109280000D03*
D11*
%TO.P,R3,1*%
%TO.N,Net-(D3-Pad1)*%
X149540000Y-121980000D03*
%TD*%
D10*
%TO.P,R2,2*%
%TO.N,GND*%
X160740000Y-62350000D03*
D11*
%TO.P,R2,1*%
%TO.N,Net-(D2-Pad1)*%
X160740000Y-75050000D03*
%TD*%
D10*
%TO.P,R1,2*%
%TO.N,GND*%
X160740000Y-110350000D03*
D11*
%TO.P,R1,1*%
%TO.N,Net-(D1-Pad1)*%
X160740000Y-123050000D03*
%TD*%
D12*
%TO.P,J1,8*%
%TO.N,N/C*%
X213740000Y-95620000D03*
%TO.P,J1,6*%
%TO.N,LED6*%
X213740000Y-93080000D03*
%TO.P,J1,4*%
%TO.N,LED4*%
X213740000Y-90540000D03*
%TO.P,J1,2*%
%TO.N,LED2*%
X213740000Y-88000000D03*
%TO.P,J1,7*%
%TO.N,GND*%
X211200000Y-95620000D03*
%TO.P,J1,5*%
%TO.N,LED5*%
X211200000Y-93080000D03*
%TO.P,J1,3*%
%TO.N,LED3*%
X211200000Y-90540000D03*
%TO.P,J1,1*%
%TO.N,LED1*%
%TA.AperFunction,ComponentPad*%
G36*
G01*
X210350000Y-88600000D02*
X210350000Y-87400000D01*
G75*
G02*
X210600000Y-87150000I250000J0D01*
G01*
X211800000Y-87150000D01*
G75*
G02*
X212050000Y-87400000I0J-250000D01*
G01*
X212050000Y-88600000D01*
G75*
G02*
X211800000Y-88850000I-250000J0D01*
G01*
X210600000Y-88850000D01*
G75*
G02*
X210350000Y-88600000I0J250000D01*
G01*
G37*
%TD.AperFunction*%
%TD*%
D13*
%TO.P,D6,2*%
%TO.N,LED6*%
X156580000Y-80015000D03*
D14*
%TO.P,D6,1*%
%TO.N,Net-(D6-Pad1)*%
X154040000Y-80015000D03*
%TD*%
D13*
%TO.P,D5,2*%
%TO.N,LED5*%
X156580000Y-87920000D03*
D14*
%TO.P,D5,1*%
%TO.N,Net-(D5-Pad1)*%
X154040000Y-87920000D03*
%TD*%
D13*
%TO.P,D4,2*%
%TO.N,LED4*%
X156580000Y-103730000D03*
D14*
%TO.P,D4,1*%
%TO.N,Net-(D4-Pad1)*%
X154040000Y-103730000D03*
%TD*%
D13*
%TO.P,D3,2*%
%TO.N,LED3*%
X156580000Y-95825000D03*
D14*
%TO.P,D3,1*%
%TO.N,Net-(D3-Pad1)*%
X154040000Y-95825000D03*
%TD*%
D13*
%TO.P,D2,2*%
%TO.N,LED2*%
X156580000Y-72110000D03*
D14*
%TO.P,D2,1*%
%TO.N,Net-(D2-Pad1)*%
X154040000Y-72110000D03*
%TD*%
D13*
%TO.P,D1,2*%
%TO.N,LED1*%
X156480000Y-113080000D03*
D14*
%TO.P,D1,1*%
%TO.N,Net-(D1-Pad1)*%
X153940000Y-113080000D03*
%TD*%
D15*
%TO.N,LED5*%
X208564800Y-91549600D03*
%TD*%
D16*
%TO.N,LED2*%
X156580000Y-72110000D02*
X184793100Y-72110000D01*
X184793100Y-72110000D02*
X199115900Y-86432800D01*
X199115900Y-86432800D02*
X212172800Y-86432800D01*
X212172800Y-86432800D02*
X213740000Y-88000000D01*
%TO.N,LED3*%
X211200000Y-90540000D02*
X205915100Y-95824900D01*
X205915100Y-95824900D02*
X156580000Y-95824900D01*
X156580000Y-95824900D02*
X156580000Y-95825000D01*
%TO.N,LED4*%
X156580000Y-103730000D02*
X198684100Y-103730000D01*
X198684100Y-103730000D02*
X210604100Y-91810000D01*
X210604100Y-91810000D02*
X212470000Y-91810000D01*
X212470000Y-91810000D02*
X213740000Y-90540000D01*
%TO.N,LED5*%
X208564800Y-91549600D02*
X164161100Y-91549600D01*
X164161100Y-91549600D02*
X160531500Y-87920000D01*
X160531500Y-87920000D02*
X156580000Y-87920000D01*
%TO.N,LED6*%
X156580000Y-80015000D02*
X165835000Y-89270000D01*
X165835000Y-89270000D02*
X214160700Y-89270000D01*
X214160700Y-89270000D02*
X214948300Y-90057600D01*
X214948300Y-90057600D02*
X214948300Y-91871700D01*
X214948300Y-91871700D02*
X213740000Y-93080000D01*
%TO.N,GND*%
X160740000Y-94350000D02*
X159614700Y-94350000D01*
X149410000Y-94020000D02*
X159284700Y-94020000D01*
X159284700Y-94020000D02*
X159614700Y-94350000D01*
X149540000Y-109280000D02*
X150665300Y-109280000D01*
X160740000Y-110350000D02*
X151735300Y-110350000D01*
X151735300Y-110350000D02*
X150665300Y-109280000D01*
X211200000Y-95620000D02*
X207709300Y-95620000D01*
X207709300Y-95620000D02*
X192979300Y-110350000D01*
X192979300Y-110350000D02*
X160740000Y-110350000D01*
%TD*%
M02*
